#!OML:ASF H:\Dans Jumps\Project 1\Capture day 1\Session 1\subject.ASF
:FULLY-SPECIFIED
:DEGREES
414
root 0.361535 16.9696 -3.91838 5.87938 2.24164 -0.31106
lowerback 6.76334 -0.584357 -1.27222
upperback 4.16672 -0.838556 1.75724
thorax 0.550277 -0.462128 2.57444
lowerneck -13.5404 -0.393576 -1.65759
upperneck 31.0497 -0.550175 1.3387
head 12.5389 -0.261956 0.720637
rclavicle -1.30204e-014 1.86858e-014
rhumerus -25.4656 -14.8414 -79.8709
rradius 22.2723
rwrist 38.4899
rhand -18.9463 -26.1129
rfingers 7.12502
rthumb 7.35701 -55.965
lclavicle -1.30204e-014 1.86858e-014
lhumerus -26.1772 0.2746 90.8773
lradius 15.1664
lwrist 5.17214
lhand -25.3093 -2.58797
lfingers 7.12502
lthumb 1.21286 27.3883
rfemur -31.0749 -2.93114 18.5898
rtibia 44.8401
rfoot -16.8111 -4.40306
rtoes 8.29802
lfemur -29.4146 6.21653 -18.7965
ltibia 41.0219
lfoot -15.7803 3.10178
ltoes -3.85156
415
root 0.360051 17.0265 -3.89187 6.26313 2.329 -0.242314
lowerback 6.48836 -0.654034 -1.29914
upperback 4.08772 -0.930803 1.74527
thorax 0.626167 -0.508675 2.57907
lowerneck -13.5266 -0.365417 -1.67673
upperneck 30.9991 -0.50647 1.34453
head 12.5145 -0.244354 0.732106
rclavicle 6.55989e-015 -2.78299e-015
rhumerus -25.738 -14.8662 -79.7732
rradius 22.2287
rwrist 38.598
rhand -18.8259 -26.0128
rfingers 7.12502
rthumb 7.47319 -55.8608
lclavicle 6.55989e-015 -2.78299e-015
lhumerus -26.3431 0.159018 90.7698
lradius 15.2002
lwrist 4.67461
lhand -25.1869 -2.33153
lfingers 7.12502
lthumb 1.33105 27.6441
rfemur -30.8686 -3.02397 18.5228
rtibia 43.862
rfoot -16.444 -4.22803
rtoes 8.88713
lfemur -29.1379 6.25339 -18.892
ltibia 39.8879
lfoot -15.4415 2.69368
ltoes -3.38706
416
root 0.358697 17.08 -3.86559 6.62007 2.37819 -0.191689
lowerback 6.22897 -0.706966 -1.30974
upperback 4.02029 -1.00005 1.736
thorax 0.704041 -0.543596 2.57566
lowerneck -13.5323 -0.339908 -1.70619
upperneck 30.9676 -0.464503 1.35353
head 12.502 -0.228239 0.74648
rclavicle 7.85199e-015 3.97569e-015
rhumerus -26.0056 -14.9422 -79.6584
rradius 22.1871
rwrist 38.6036
rhand -18.7472 -25.9481
rfingers 7.12502
rthumb 7.54915 -55.7934
lclavicle 7.85199e-015 3.97569e-015
lhumerus -26.5105 0.0036451 90.6702
lradius 15.2228
lwrist 4.56987
lhand -25.0879 -2.41591
lfingers 7.12502
lthumb 1.42664 27.5591
rfemur -30.6499 -3.08743 18.4751
rtibia 42.9082
rfoot -16.0938 -4.04915
rtoes 9.46268
lfemur -28.8593 6.30992 -18.969
ltibia 38.8034
lfoot -15.089 2.3237
ltoes -2.90397
417
root 0.357238 17.1297 -3.83961 6.94284 2.38979 -0.15981
lowerback 5.99305 -0.742663 -1.30804
upperback 3.96511 -1.046 1.73051
thorax 0.780241 -0.566786 2.56793
lowerneck -13.5419 -0.317648 -1.74249
upperneck 30.9468 -0.425085 1.362
head 12.4949 -0.214078 0.76155
rclavicle 9.54166e-015 -9.14409e-015
rhumerus -26.2682 -15.0761 -79.5221
rradius 22.1405
rwrist 38.5405
rhand -18.7046 -25.9198
rfingers 7.12502
rthumb 7.59032 -55.7636
lclavicle 9.54166e-015 -9.14409e-015
lhumerus -26.6734 -0.21032 90.5911
lradius 15.2302
lwrist 4.89053
lhand -24.9951 -2.71539
lfingers 7.12502
lthumb 1.5163 27.259
rfemur -30.4092 -3.10869 18.4455
rtibia 41.9787
rfoot -15.7668 -3.87958
rtoes 10.0215
lfemur -28.5744 6.38486 -19.026
ltibia 37.7762
lfoot -14.7354 2.00909
ltoes -2.4429
418
root 0.355427 17.1756 -3.81412 7.22784 2.37107 -0.149114
lowerback 5.78359 -0.763934 -1.29534
upperback 3.92429 -1.07254 1.73023
thorax 0.855514 -0.580252 2.55857
lowerneck -13.5407 -0.295634 -1.75929
upperneck 30.9185 -0.382634 1.34297
head 12.4822 -0.19981 0.763106
rclavicle 1.25234e-014 -9.93923e-015
rhumerus -26.52 -15.2683 -79.3655
rradius 22.0856
rwrist 38.4518
rhand -18.6935 -25.9134
rfingers 7.12502
rthumb 7.60099 -55.7568
lclavicle 1.25234e-014 -9.93923e-015
lhumerus -26.8221 -0.434295 90.5179
lradius 15.2237
lwrist 5.54216
lhand -24.947 -3.26149
lfingers 7.12502
lthumb 1.5628 26.7125
rfemur -30.1409 -3.08596 18.4374
rtibia 41.0737
rfoot -15.466 -3.73517
rtoes 10.5313
lfemur -28.2827 6.47196 -19.0587
ltibia 36.8116
lfoot -14.3919 1.75727
ltoes -2.04336
419
root 0.353223 17.2172 -3.78925 7.47486 2.32762 -0.161022
lowerback 5.60108 -0.773087 -1.27155
upperback 3.8974 -1.08281 1.73686
thorax 0.92929 -0.585556 2.54958
lowerneck -13.5301 -0.274064 -1.74897
upperneck 30.8854 -0.336933 1.28815
head 12.4655 -0.185528 0.746715
rclavicle -1.63997e-014 1.43125e-014
rhumerus -26.7631 -15.5023 -79.1905
rradius 22.0239
rwrist 38.3703
rhand -18.7029 -25.9247
rfingers 7.12502
rthumb 7.59192 -55.7685
lclavicle -1.63997e-014 1.43125e-014
lhumerus -26.9446 -0.666863 90.4533
lradius 15.2333
lwrist 6.49626
lhand -24.8091 -3.65687
lfingers 7.12502
lthumb 1.69597 26.3161
rfemur -29.845 -3.02145 18.4523
rtibia 40.1956
rfoot -15.1949 -3.62125
rtoes 10.9726
lfemur -27.9851 6.56356 -19.0634
ltibia 35.9156
lfoot -14.0683 1.56477
ltoes -1.71197
420
root 0.350678 17.255 -3.76528 7.68347 2.26742 -0.191044
lowerback 5.44857 -0.772609 -1.23975
upperback 3.88245 -1.08026 1.74876
thorax 0.998042 -0.584413 2.54136
lowerneck -13.5136 -0.253491 -1.74321
upperneck 30.8629 -0.29272 1.23692
head 12.4519 -0.171976 0.732352
rclavicle 1.16289e-014 -1.78906e-014
rhumerus -26.9987 -15.77 -78.9997
rradius 21.953
rwrist 38.3255
rhand -18.7283 -25.9451
rfingers 7.12502
rthumb 7.56738 -55.7897
lclavicle 1.16289e-014 -1.78906e-014
lhumerus -27.0439 -0.853118 90.3764
lradius 15.2555
lwrist 7.56663
lhand -24.6025 -3.86646
lfingers 7.12502
lthumb 1.89552 26.1049
rfemur -29.5237 -2.92551 18.4863
rtibia 39.347
rfoot -14.9523 -3.54083
rtoes 11.3217
lfemur -27.6824 6.65667 -19.0448
ltibia 35.0893
lfoot -13.7672 1.42122
ltoes -1.44281
